<svg id="Capa_1" enable-background="new 0 0 512 512" height="512" viewBox="0 0 512 512" width="512" xmlns="http://www.w3.org/2000/svg" xmlns:xlink="http://www.w3.org/1999/xlink"><linearGradient id="SVGID_1_" gradientUnits="userSpaceOnUse" x1="74.981" x2="437.019" y1="437.019" y2="74.981"><stop offset="0" stop-color="#6b23ea"/><stop offset="1" stop-color="#fc54ff"/></linearGradient><radialGradient id="SVGID_2_" cx="256" cy="256" gradientUnits="userSpaceOnUse" r="258.6"><stop offset=".095" stop-color="#8d00db" stop-opacity=".66"/><stop offset=".2822" stop-color="#9f0de1" stop-opacity=".523"/><stop offset=".6541" stop-color="#cc30f0" stop-opacity=".252"/><stop offset="1" stop-color="#fc54ff" stop-opacity="0"/></radialGradient><linearGradient id="lg1"><stop offset="0" stop-color="#fc54ff"/><stop offset=".1022" stop-color="#fd77ff"/><stop offset=".2431" stop-color="#fda0ff"/><stop offset=".3875" stop-color="#fec3ff"/><stop offset=".5338" stop-color="#feddff"/><stop offset=".6827" stop-color="#fff0ff"/><stop offset=".8359" stop-color="#fffbff"/><stop offset="1" stop-color="#fff"/></linearGradient><linearGradient id="SVGID_3_" gradientUnits="userSpaceOnUse" x1="-385.042" x2="536.869" xlink:href="#lg1" y1="897.042" y2="-24.869"/><linearGradient id="SVGID_4_" gradientUnits="userSpaceOnUse" x1="-52.845" x2="373.384" xlink:href="#lg1" y1="568.7" y2="142.471"/><linearGradient id="lg2"><stop offset="0" stop-color="#fc54ff"/><stop offset=".4062" stop-color="#fd9bff"/><stop offset="1" stop-color="#fff"/></linearGradient><linearGradient id="SVGID_5_" gradientUnits="userSpaceOnUse" x1="136.827" x2="479.17" xlink:href="#lg2" y1="486.296" y2="143.953"/><linearGradient id="SVGID_6_" gradientUnits="userSpaceOnUse" x1="114.08" x2="423.438" xlink:href="#lg2" y1="330.917" y2="21.559"/><linearGradient id="SVGID_7_" gradientUnits="userSpaceOnUse" x1="200.583" x2="532.591" xlink:href="#lg2" y1="438.079" y2="106.071"/><linearGradient id="SVGID_8_" gradientUnits="userSpaceOnUse" x1="45.363" x2="634.488" xlink:href="#lg2" y1="451.764" y2="-137.36"/><g><circle cx="256" cy="256" fill="url(#SVGID_1_)" r="256"/><circle cx="256" cy="256" fill="url(#SVGID_2_)" r="256"/><circle cx="256" cy="256" fill="url(#SVGID_3_)" r="196"/><path d="m271 422c-108.248 0-196-87.752-196-196 0-25.5 4.873-49.86 13.733-72.206-18.223 29.759-28.733 64.754-28.733 102.206 0 108.248 87.752 196 196 196 82.748 0 153.516-51.28 182.267-123.794-34.448 56.255-96.471 93.794-167.267 93.794z" fill="url(#SVGID_4_)"/><path d="m261.464 276.841c-.01 44.643-.054 89.286-.131 133.929 10-.017 20-.085 30-.202 8.276-.099 15.106-7.08 15.238-15.546.354-24.079.615-48.158.785-72.237.057-8.471 6.958-15.374 15.429-15.429-20.372-10.059-40.832-20.27-61.321-30.515z" fill="url(#SVGID_5_)"/><path d="m307.356 189.215c-.17-24.078-.432-48.158-.785-72.237-.132-8.465-6.961-15.447-15.238-15.546-10-.117-20-.184-30-.202.077 44.643.121 89.286.131 133.929 20.489-10.245 40.949-20.456 61.321-30.515-8.471-.059-15.372-6.956-15.429-15.429z" fill="url(#SVGID_6_)"/><path d="m395.022 205.429c-10.222-.15-20.444-.283-30.667-.401.393 33.981.393 67.962 0 101.943 10.222-.117 20.444-.25 30.667-.401 8.465-.131 15.447-6.961 15.546-15.238.276-23.555.276-47.111 0-70.666-.098-8.275-7.081-15.106-15.546-15.237z" fill="url(#SVGID_7_)"/><path d="m379.859 291.649c.221-23.766.221-47.532 0-71.299-.079-8.351-7.039-15.218-15.504-15.322-24.079-.276-48.158-.459-72.237-.551-8.471-.031-15.351-6.925-15.372-15.415-.069-24.134-.174-48.268-.317-72.401-.057-8.487-6.82-15.418-15.096-15.432-13.556-.024-27.111.043-40.667.202-8.276.099-15.106 7.081-15.238 15.546-.354 24.079-.615 48.158-.785 72.237-.057 8.472-6.958 15.37-15.429 15.429-24.079.17-48.158.432-72.237.785-8.465.131-15.448 6.96-15.546 15.238-.276 23.555-.276 47.111 0 70.666.099 8.277 7.081 15.108 15.546 15.238 24.079.354 48.158.615 72.237.785 8.471.056 15.372 6.958 15.429 15.429.17 24.078.432 48.158.785 72.237.131 8.466 6.961 15.446 15.238 15.546 13.556.158 27.111.226 40.667.202 8.276-.016 15.038-6.946 15.096-15.432.143-24.134.249-48.268.317-72.401.021-8.489 6.901-15.384 15.372-15.415 24.079-.092 48.158-.275 72.237-.551 8.466-.102 15.425-6.969 15.504-15.321z" fill="url(#SVGID_8_)"/></g></svg>